<mxfile host="app.diagrams.net" agent="Mozilla/5.0 (Windows NT 10.0; Win64; x64) AppleWebKit/537.36 (KHTML, like Gecko) Chrome/135.0.0.0 Safari/537.36 Edg/135.0.0.0" version="26.2.10">
  <diagram name="PÃ¡gina-1" id="2EU1YA5a-xbGjDSI5uBa">
    <mxGraphModel dx="687" dy="382" grid="1" gridSize="10" guides="1" tooltips="1" connect="1" arrows="1" fold="1" page="1" pageScale="1" pageWidth="827" pageHeight="1169" math="0" shadow="0">
      <root>
        <mxCell id="0" />
        <mxCell id="1" parent="0" />
        <mxCell id="_eZZGoolo8p0MGqpDkEx-18" value="users" style="rounded=1;whiteSpace=wrap;html=1;verticalAlign=top;fontSize=14;fontStyle=1" parent="1" vertex="1">
          <mxGeometry x="30" y="110" width="330" height="170" as="geometry" />
        </mxCell>
        <mxCell id="_eZZGoolo8p0MGqpDkEx-19" value="&lt;font style=&quot;color: light-dark(rgb(0, 0, 0), rgb(186, 0, 0));&quot;&gt;PK&lt;/font&gt;&amp;nbsp; &amp;nbsp; &amp;nbsp; &amp;nbsp; &amp;nbsp; &amp;nbsp; &amp;nbsp; &amp;nbsp; &amp;nbsp; &amp;nbsp; &amp;nbsp; &amp;nbsp; &amp;nbsp; &amp;nbsp; &amp;nbsp; &amp;nbsp; &amp;nbsp; &amp;nbsp; &amp;nbsp; &amp;nbsp;uuid" style="rounded=0;whiteSpace=wrap;html=1;align=right;fontStyle=1;fillColor=light-dark(#FFFFFF,#343A40);" parent="1" vertex="1">
          <mxGeometry x="50" y="140" width="180" height="20" as="geometry" />
        </mxCell>
        <mxCell id="_eZZGoolo8p0MGqpDkEx-20" value="UUID" style="rounded=0;whiteSpace=wrap;html=1;align=center;fontStyle=1;fillColor=light-dark(#FFFFFF,#343A40);" parent="1" vertex="1">
          <mxGeometry x="230" y="140" width="110" height="20" as="geometry" />
        </mxCell>
        <mxCell id="_eZZGoolo8p0MGqpDkEx-21" value="&lt;font color=&quot;rgba(0, 0, 0, 0)&quot;&gt;username&lt;/font&gt;" style="rounded=0;whiteSpace=wrap;html=1;align=right;fontStyle=1;fillColor=light-dark(#FFFFFF,#343A40);" parent="1" vertex="1">
          <mxGeometry x="50" y="160" width="180" height="20" as="geometry" />
        </mxCell>
        <mxCell id="_eZZGoolo8p0MGqpDkEx-22" value="VARCHAR(50)" style="rounded=0;whiteSpace=wrap;html=1;align=center;fontStyle=1;fillColor=light-dark(#FFFFFF,#343A40);" parent="1" vertex="1">
          <mxGeometry x="230" y="160" width="110" height="20" as="geometry" />
        </mxCell>
        <mxCell id="_eZZGoolo8p0MGqpDkEx-23" value="&lt;font style=&quot;color: light-dark(rgb(186, 0, 0), rgb(255, 255, 255));&quot;&gt;password&lt;/font&gt;" style="rounded=0;whiteSpace=wrap;html=1;align=right;fontStyle=1;fillColor=light-dark(#FFFFFF,#343A40);" parent="1" vertex="1">
          <mxGeometry x="50" y="180" width="180" height="20" as="geometry" />
        </mxCell>
        <mxCell id="_eZZGoolo8p0MGqpDkEx-24" value="TEXT" style="rounded=0;whiteSpace=wrap;html=1;align=center;fontStyle=1;fillColor=light-dark(#FFFFFF,#343A40);" parent="1" vertex="1">
          <mxGeometry x="230" y="180" width="110" height="20" as="geometry" />
        </mxCell>
        <mxCell id="_eZZGoolo8p0MGqpDkEx-25" value="&lt;font color=&quot;rgba(0, 0, 0, 0)&quot;&gt;role&lt;/font&gt;" style="rounded=0;whiteSpace=wrap;html=1;align=right;fontStyle=1;fillColor=light-dark(#FFFFFF,#343A40);" parent="1" vertex="1">
          <mxGeometry x="50" y="200" width="180" height="20" as="geometry" />
        </mxCell>
        <mxCell id="_eZZGoolo8p0MGqpDkEx-26" value="VARCHAR(50)" style="rounded=0;whiteSpace=wrap;html=1;align=center;fontStyle=1;fillColor=light-dark(#FFFFFF,#343A40);" parent="1" vertex="1">
          <mxGeometry x="230" y="200" width="110" height="20" as="geometry" />
        </mxCell>
        <mxCell id="_eZZGoolo8p0MGqpDkEx-27" value="customers" style="rounded=1;whiteSpace=wrap;html=1;verticalAlign=top;fontSize=14;fontStyle=1" parent="1" vertex="1">
          <mxGeometry x="30" y="300" width="330" height="150" as="geometry" />
        </mxCell>
        <mxCell id="_eZZGoolo8p0MGqpDkEx-28" value="&lt;font style=&quot;color: light-dark(rgb(0, 0, 0), rgb(186, 0, 0));&quot;&gt;PK&lt;/font&gt;&amp;nbsp; &amp;nbsp; &amp;nbsp; &amp;nbsp; &amp;nbsp; &amp;nbsp; &amp;nbsp; &amp;nbsp; &amp;nbsp; &amp;nbsp; &amp;nbsp; &amp;nbsp; &amp;nbsp; &amp;nbsp; &amp;nbsp; &amp;nbsp; &amp;nbsp; &amp;nbsp; &amp;nbsp; &amp;nbsp;uuid" style="rounded=0;whiteSpace=wrap;html=1;align=right;fontStyle=1;fillColor=light-dark(#FFFFFF,#343A40);" parent="1" vertex="1">
          <mxGeometry x="50" y="330" width="180" height="20" as="geometry" />
        </mxCell>
        <mxCell id="_eZZGoolo8p0MGqpDkEx-29" value="UUID" style="rounded=0;whiteSpace=wrap;html=1;align=center;fontStyle=1;fillColor=light-dark(#FFFFFF,#343A40);" parent="1" vertex="1">
          <mxGeometry x="230" y="330" width="110" height="20" as="geometry" />
        </mxCell>
        <mxCell id="_eZZGoolo8p0MGqpDkEx-30" value="&lt;font color=&quot;rgba(0, 0, 0, 0)&quot;&gt;name&lt;/font&gt;" style="rounded=0;whiteSpace=wrap;html=1;align=right;fontStyle=1;fillColor=light-dark(#FFFFFF,#343A40);" parent="1" vertex="1">
          <mxGeometry x="50" y="350" width="180" height="20" as="geometry" />
        </mxCell>
        <mxCell id="_eZZGoolo8p0MGqpDkEx-31" value="VARCHAR(100)" style="rounded=0;whiteSpace=wrap;html=1;align=center;fontStyle=1;fillColor=light-dark(#FFFFFF,#343A40);" parent="1" vertex="1">
          <mxGeometry x="230" y="350" width="110" height="20" as="geometry" />
        </mxCell>
        <mxCell id="_eZZGoolo8p0MGqpDkEx-32" value="&lt;font style=&quot;color: light-dark(rgb(186, 0, 0), rgb(255, 255, 255));&quot;&gt;registry_date&lt;/font&gt;" style="rounded=0;whiteSpace=wrap;html=1;align=right;fontStyle=1;fillColor=light-dark(#FFFFFF,#343A40);" parent="1" vertex="1">
          <mxGeometry x="50" y="370" width="180" height="20" as="geometry" />
        </mxCell>
        <mxCell id="_eZZGoolo8p0MGqpDkEx-33" value="DATE" style="rounded=0;whiteSpace=wrap;html=1;align=center;fontStyle=1;fillColor=light-dark(#FFFFFF,#343A40);" parent="1" vertex="1">
          <mxGeometry x="230" y="370" width="110" height="20" as="geometry" />
        </mxCell>
        <mxCell id="_eZZGoolo8p0MGqpDkEx-36" value="&lt;font color=&quot;rgba(0, 0, 0, 0)&quot;&gt;created_at&lt;/font&gt;" style="rounded=0;whiteSpace=wrap;html=1;align=right;fontStyle=1;fillColor=light-dark(#FFFFFF,#343A40);" parent="1" vertex="1">
          <mxGeometry x="50" y="220" width="180" height="20" as="geometry" />
        </mxCell>
        <mxCell id="_eZZGoolo8p0MGqpDkEx-37" value="TIMESTAMP" style="rounded=0;whiteSpace=wrap;html=1;align=center;fontStyle=1;fillColor=light-dark(#FFFFFF,#343A40);" parent="1" vertex="1">
          <mxGeometry x="230" y="220" width="110" height="20" as="geometry" />
        </mxCell>
        <mxCell id="_eZZGoolo8p0MGqpDkEx-38" value="&lt;font color=&quot;rgba(0, 0, 0, 0)&quot;&gt;updated_at&lt;/font&gt;" style="rounded=0;whiteSpace=wrap;html=1;align=right;fontStyle=1;fillColor=light-dark(#FFFFFF,#343A40);" parent="1" vertex="1">
          <mxGeometry x="50" y="240" width="180" height="20" as="geometry" />
        </mxCell>
        <mxCell id="_eZZGoolo8p0MGqpDkEx-39" value="TIMESTAMP" style="rounded=0;whiteSpace=wrap;html=1;align=center;fontStyle=1;fillColor=light-dark(#FFFFFF,#343A40);" parent="1" vertex="1">
          <mxGeometry x="230" y="240" width="110" height="20" as="geometry" />
        </mxCell>
        <mxCell id="_eZZGoolo8p0MGqpDkEx-40" value="&lt;font color=&quot;rgba(0, 0, 0, 0)&quot;&gt;created_at&lt;/font&gt;" style="rounded=0;whiteSpace=wrap;html=1;align=right;fontStyle=1;fillColor=light-dark(#FFFFFF,#343A40);" parent="1" vertex="1">
          <mxGeometry x="50" y="390" width="180" height="20" as="geometry" />
        </mxCell>
        <mxCell id="_eZZGoolo8p0MGqpDkEx-41" value="TIMESTAMP" style="rounded=0;whiteSpace=wrap;html=1;align=center;fontStyle=1;fillColor=light-dark(#FFFFFF,#343A40);" parent="1" vertex="1">
          <mxGeometry x="230" y="390" width="110" height="20" as="geometry" />
        </mxCell>
        <mxCell id="_eZZGoolo8p0MGqpDkEx-42" value="&lt;font color=&quot;rgba(0, 0, 0, 0)&quot;&gt;updated_at&lt;/font&gt;" style="rounded=0;whiteSpace=wrap;html=1;align=right;fontStyle=1;fillColor=light-dark(#FFFFFF,#343A40);" parent="1" vertex="1">
          <mxGeometry x="50" y="410" width="180" height="20" as="geometry" />
        </mxCell>
        <mxCell id="_eZZGoolo8p0MGqpDkEx-43" value="TIMESTAMP" style="rounded=0;whiteSpace=wrap;html=1;align=center;fontStyle=1;fillColor=light-dark(#FFFFFF,#343A40);" parent="1" vertex="1">
          <mxGeometry x="230" y="410" width="110" height="20" as="geometry" />
        </mxCell>
        <mxCell id="_eZZGoolo8p0MGqpDkEx-44" value="transactions" style="rounded=1;whiteSpace=wrap;html=1;verticalAlign=top;fontSize=14;fontStyle=1" parent="1" vertex="1">
          <mxGeometry x="414" y="300" width="330" height="170" as="geometry" />
        </mxCell>
        <mxCell id="_eZZGoolo8p0MGqpDkEx-45" value="&lt;font style=&quot;color: light-dark(rgb(0, 0, 0), rgb(186, 0, 0));&quot;&gt;PK&lt;/font&gt;&amp;nbsp; &amp;nbsp; &amp;nbsp; &amp;nbsp; &amp;nbsp; &amp;nbsp; &amp;nbsp; &amp;nbsp; &amp;nbsp; &amp;nbsp; &amp;nbsp; &amp;nbsp; &amp;nbsp; &amp;nbsp; &amp;nbsp; &amp;nbsp; &amp;nbsp; &amp;nbsp; &amp;nbsp; &amp;nbsp;uuid" style="rounded=0;whiteSpace=wrap;html=1;align=right;fontStyle=1;fillColor=light-dark(#FFFFFF,#343A40);" parent="1" vertex="1">
          <mxGeometry x="434" y="330" width="180" height="20" as="geometry" />
        </mxCell>
        <mxCell id="_eZZGoolo8p0MGqpDkEx-46" value="UUID" style="rounded=0;whiteSpace=wrap;html=1;align=center;fontStyle=1;fillColor=light-dark(#FFFFFF,#343A40);" parent="1" vertex="1">
          <mxGeometry x="614" y="330" width="110" height="20" as="geometry" />
        </mxCell>
        <mxCell id="_eZZGoolo8p0MGqpDkEx-47" value="&lt;font style=&quot;&quot;&gt;&lt;span style=&quot;color: light-dark(rgb(0, 0, 0), rgb(186, 0, 0));&quot;&gt;&lt;font style=&quot;color: light-dark(rgb(0, 0, 0), rgb(186, 0, 0));&quot;&gt;FK&amp;nbsp; &amp;nbsp; &amp;nbsp; &amp;nbsp; &amp;nbsp; &amp;nbsp; &amp;nbsp; &amp;nbsp; &amp;nbsp; &amp;nbsp; &amp;nbsp;&lt;/font&gt;&lt;/span&gt;&lt;font style=&quot;color: light-dark(rgb(0, 0, 0), rgb(255, 255, 255));&quot;&gt;customer_uuid&lt;/font&gt;&lt;/font&gt;" style="rounded=0;whiteSpace=wrap;html=1;align=right;fontStyle=1;fillColor=light-dark(#FFFFFF,#343A40);" parent="1" vertex="1">
          <mxGeometry x="434" y="350" width="180" height="20" as="geometry" />
        </mxCell>
        <mxCell id="_eZZGoolo8p0MGqpDkEx-48" value="UUID" style="rounded=0;whiteSpace=wrap;html=1;align=center;fontStyle=1;fillColor=light-dark(#FFFFFF,#343A40);" parent="1" vertex="1">
          <mxGeometry x="614" y="350" width="110" height="20" as="geometry" />
        </mxCell>
        <mxCell id="_eZZGoolo8p0MGqpDkEx-49" value="&lt;font style=&quot;color: light-dark(rgb(186, 0, 0), rgb(255, 255, 255));&quot;&gt;months_paid&lt;/font&gt;" style="rounded=0;whiteSpace=wrap;html=1;align=right;fontStyle=1;fillColor=light-dark(#FFFFFF,#343A40);" parent="1" vertex="1">
          <mxGeometry x="434" y="370" width="180" height="20" as="geometry" />
        </mxCell>
        <mxCell id="_eZZGoolo8p0MGqpDkEx-50" value="INTEGER" style="rounded=0;whiteSpace=wrap;html=1;align=center;fontStyle=1;fillColor=light-dark(#FFFFFF,#343A40);" parent="1" vertex="1">
          <mxGeometry x="614" y="370" width="110" height="20" as="geometry" />
        </mxCell>
        <mxCell id="_eZZGoolo8p0MGqpDkEx-51" value="&lt;font color=&quot;rgba(0, 0, 0, 0)&quot;&gt;created_at&lt;/font&gt;" style="rounded=0;whiteSpace=wrap;html=1;align=right;fontStyle=1;fillColor=light-dark(#FFFFFF,#343A40);" parent="1" vertex="1">
          <mxGeometry x="434" y="410" width="180" height="20" as="geometry" />
        </mxCell>
        <mxCell id="_eZZGoolo8p0MGqpDkEx-52" value="TIMESTAMP" style="rounded=0;whiteSpace=wrap;html=1;align=center;fontStyle=1;fillColor=light-dark(#FFFFFF,#343A40);" parent="1" vertex="1">
          <mxGeometry x="614" y="410" width="110" height="20" as="geometry" />
        </mxCell>
        <mxCell id="_eZZGoolo8p0MGqpDkEx-53" value="&lt;font color=&quot;rgba(0, 0, 0, 0)&quot;&gt;updated_at&lt;/font&gt;" style="rounded=0;whiteSpace=wrap;html=1;align=right;fontStyle=1;fillColor=light-dark(#FFFFFF,#343A40);" parent="1" vertex="1">
          <mxGeometry x="434" y="430" width="180" height="20" as="geometry" />
        </mxCell>
        <mxCell id="_eZZGoolo8p0MGqpDkEx-54" value="TIMESTAMP" style="rounded=0;whiteSpace=wrap;html=1;align=center;fontStyle=1;fillColor=light-dark(#FFFFFF,#343A40);" parent="1" vertex="1">
          <mxGeometry x="614" y="430" width="110" height="20" as="geometry" />
        </mxCell>
        <mxCell id="_eZZGoolo8p0MGqpDkEx-59" value="" style="edgeStyle=entityRelationEdgeStyle;fontSize=12;html=1;endArrow=ERmany;rounded=0;" parent="1" source="_eZZGoolo8p0MGqpDkEx-29" target="_eZZGoolo8p0MGqpDkEx-47" edge="1">
          <mxGeometry width="100" height="100" relative="1" as="geometry">
            <mxPoint x="430" y="440" as="sourcePoint" />
            <mxPoint x="530" y="340" as="targetPoint" />
          </mxGeometry>
        </mxCell>
        <mxCell id="_eZZGoolo8p0MGqpDkEx-62" value="&lt;font color=&quot;rgba(0, 0, 0, 0)&quot;&gt;payment_date&lt;/font&gt;" style="rounded=0;whiteSpace=wrap;html=1;align=right;fontStyle=1;fillColor=light-dark(#FFFFFF,#343A40);" parent="1" vertex="1">
          <mxGeometry x="434" y="390" width="180" height="20" as="geometry" />
        </mxCell>
        <mxCell id="_eZZGoolo8p0MGqpDkEx-63" value="DATE" style="rounded=0;whiteSpace=wrap;html=1;align=center;fontStyle=1;fillColor=light-dark(#FFFFFF,#343A40);" parent="1" vertex="1">
          <mxGeometry x="614" y="390" width="110" height="20" as="geometry" />
        </mxCell>
      </root>
    </mxGraphModel>
  </diagram>
</mxfile>
